<svg width="45" height="45" viewBox="0 0 45 45" fill="none" xmlns="http://www.w3.org/2000/svg">
<rect x="1.5" y="1.5" width="42" height="42" rx="11.5" stroke="white" stroke-width="3"/>
<path d="M11.8431 33V16.6364H16.3815V33H11.8431ZM14.1229 14.527C13.4482 14.527 12.8694 14.3033 12.3864 13.8558C11.9106 13.4013 11.6727 12.858 11.6727 12.2259C11.6727 11.6009 11.9106 11.0646 12.3864 10.6172C12.8694 10.1626 13.4482 9.93537 14.1229 9.93537C14.7977 9.93537 15.3729 10.1626 15.8488 10.6172C16.3317 11.0646 16.5732 11.6009 16.5732 12.2259C16.5732 12.858 16.3317 13.4013 15.8488 13.8558C15.3729 14.3033 14.7977 14.527 14.1229 14.527ZM23.6553 23.5398V33H19.1169V16.6364H23.4422V19.5234H23.634C23.9962 18.5717 24.6034 17.8189 25.4557 17.2649C26.308 16.7038 27.3414 16.4233 28.5559 16.4233C29.6922 16.4233 30.683 16.6719 31.5282 17.169C32.3733 17.6662 33.0303 18.3764 33.499 19.2997C33.9678 20.2159 34.2022 21.3097 34.2022 22.581V33H29.6638V23.3906C29.6709 22.3892 29.4152 21.608 28.8968 21.0469C28.3783 20.4787 27.6645 20.1946 26.7554 20.1946C26.1446 20.1946 25.6049 20.326 25.1361 20.5888C24.6745 20.8516 24.3123 21.2351 24.0495 21.7393C23.7938 22.2365 23.6624 22.8366 23.6553 23.5398Z" fill="white"/>
</svg>
